<svg width="500" height="406" viewBox="0 0 500 406" fill="none" xmlns="http://www.w3.org/2000/svg">
<g clip-path="url(#clip0_5096_11788)">
<path d="M500 360.34H0V360.59H500V360.34Z" fill="#EBEBEB"/>
<path d="M449.9 376.44H416.78V376.69H449.9V376.44Z" fill="#EBEBEB"/>
<path d="M273.22 373.3H260.33V373.55H273.22V373.3Z" fill="#EBEBEB"/>
<path d="M349.67 374.36H322.53V374.61H349.67V374.36Z" fill="#EBEBEB"/>
<path d="M415.78 367.15H359.67V367.4H415.78V367.15Z" fill="#EBEBEB"/>
<path d="M78.99 378.72H52.46V378.97H78.99V378.72Z" fill="#EBEBEB"/>
<path d="M110.89 378.72H87.8896V378.97H110.89V378.72Z" fill="#EBEBEB"/>
<path d="M191.81 373.18H131V373.43H191.81V373.18Z" fill="#EBEBEB"/>
<path d="M237.01 315.74H43.9102C40.7602 315.74 38.2002 313.18 38.2002 310.03V38.6001C38.2002 35.4501 40.7602 32.8901 43.9102 32.8901H237.01C240.16 32.8901 242.72 35.4501 242.72 38.6001V310.03C242.72 313.18 240.16 315.74 237.01 315.74ZM43.9102 33.1401C40.9002 33.1401 38.4502 35.5901 38.4502 38.6001V310.03C38.4502 313.04 40.9002 315.49 43.9102 315.49H237.01C240.02 315.49 242.47 313.04 242.47 310.03V38.6001C242.47 35.5901 240.02 33.1401 237.01 33.1401H43.9102Z" fill="#EBEBEB"/>
<path d="M453.31 315.74H260.21C257.06 315.74 254.5 313.18 254.5 310.03V38.6001C254.5 35.4501 257.06 32.8901 260.21 32.8901H453.31C456.46 32.8901 459.02 35.4501 459.02 38.6001V310.03C459.02 313.18 456.46 315.74 453.31 315.74ZM260.21 33.1401C257.2 33.1401 254.75 35.5901 254.75 38.6001V310.03C254.75 313.04 257.2 315.49 260.21 315.49H453.31C456.32 315.49 458.77 313.04 458.77 310.03V38.6001C458.77 35.5901 456.32 33.1401 453.31 33.1401H260.21Z" fill="#EBEBEB"/>
<path d="M467.06 172.11C470.31 160.83 469.72 149.35 466.07 139.07C468.92 134.99 471.17 130.38 472.63 125.33C479.33 102.11 467.12 77.93 445.09 69.22C440.84 38.8 419.25 12.22 387.84 3.15998C363 -4.00002 337.53 1.37998 318.17 15.55C313.32 10.48 307.12 6.56998 299.9 4.48998C278.12 -1.79002 255.37 10.77 249.09 32.55C248.04 36.19 247.53 39.86 247.49 43.48C225.57 47.9 206.8 64.05 200.18 87.02C194.23 107.65 199.5 128.86 212.37 144.13C210.71 147.14 209.34 150.37 208.35 153.81C201.22 178.54 215.48 204.36 240.21 211.49C248.36 213.84 256.63 213.85 264.31 211.95C273.4 224.48 286.57 234.2 302.59 238.82C323.22 244.77 344.33 241.07 361.13 230.41C368.65 247.9 374.83 274.14 361.53 299.87C409.87 295.13 444.79 248.76 437.67 206.27C451.47 199.92 462.53 187.85 467.07 172.11H467.06Z" fill="#EBEBEB"/>
<path d="M374.32 290.27C374.06 290.27 373.8 290.17 373.61 289.98C373.35 289.72 373.25 289.35 373.35 288.99C380.16 265.27 373.95 242.53 367.55 227.63L364.3 220.08L357.36 224.48C346.89 231.13 334.84 234.64 322.53 234.64C316.46 234.64 310.4 233.78 304.51 232.08C290.48 228.03 278.53 219.64 269.95 207.82L267.18 204L262.6 205.14C255.88 206.81 248.81 206.68 242.12 204.75C231.96 201.82 223.55 195.11 218.43 185.85C213.32 176.59 212.12 165.9 215.05 155.73C215.87 152.89 217.02 150.12 218.47 147.5L220.8 143.28L217.69 139.6C205.83 125.53 201.78 106.59 206.87 88.94C212.57 69.19 228.65 54.39 248.84 50.32L254.39 49.2L254.45 43.54C254.48 40.46 254.93 37.41 255.78 34.47C259.96 19.97 273.4 9.84998 288.47 9.84998C291.65 9.84998 294.83 10.3 297.92 11.19C303.69 12.86 308.93 16.03 313.07 20.36L317.31 24.8L322.26 21.18C334.78 12.02 350.15 6.97998 365.54 6.97998C372.38 6.97998 379.21 7.94998 385.85 9.86998C413.6 17.87 434.11 41.54 438.11 70.17L438.67 74.21L442.47 75.71C461.47 83.22 471.53 103.71 465.86 123.37C464.65 127.55 462.78 131.47 460.29 135.04L458.23 137.99L459.43 141.39C462.74 150.7 463.03 160.65 460.29 170.15C456.49 183.31 447.16 194.15 434.69 199.89L429.83 202.13L430.71 207.41C433.75 225.54 428.29 245.34 415.73 261.74C405.27 275.4 390.65 285.51 374.55 290.21C374.46 290.24 374.36 290.25 374.27 290.25L374.32 290.27ZM364.77 217.62C364.87 217.62 364.97 217.63 365.07 217.66C365.35 217.75 365.58 217.95 365.69 218.22L369.4 226.84C375.78 241.67 381.95 264.13 375.77 287.77C390.78 282.98 404.37 273.36 414.2 260.53C426.42 244.57 431.74 225.33 428.8 207.75L427.79 201.72C427.72 201.27 427.95 200.84 428.36 200.65L433.92 198.09C445.87 192.59 454.8 182.21 458.44 169.61C461.06 160.51 460.78 150.99 457.61 142.07L456.23 138.19C456.12 137.89 456.17 137.55 456.35 137.28L458.71 133.9C461.08 130.51 462.86 126.78 464 122.82C469.38 104.16 459.84 84.71 441.8 77.58L437.46 75.87C437.13 75.74 436.89 75.44 436.84 75.08L436.19 70.46C432.3 42.61 412.35 19.58 385.36 11.8C378.9 9.93998 372.25 8.98998 365.6 8.98998C350.62 8.98998 335.67 13.9 323.5 22.8L317.84 26.94C317.43 27.24 316.87 27.19 316.53 26.82L311.68 21.75C307.78 17.67 302.85 14.69 297.42 13.12C294.51 12.28 291.52 11.85 288.52 11.85C274.34 11.85 261.68 21.38 257.75 35.03C256.95 37.8 256.53 40.67 256.5 43.56L256.43 50.03C256.43 50.5 256.09 50.91 255.63 51L249.28 52.28C229.82 56.2 214.33 70.46 208.84 89.49C203.94 106.5 207.83 124.74 219.27 138.3L222.82 142.51C223.09 142.83 223.13 143.28 222.93 143.64L220.26 148.46C218.88 150.95 217.79 153.58 217.01 156.28C214.23 165.93 215.37 176.08 220.22 184.87C225.08 193.66 233.06 200.04 242.71 202.82C249.06 204.65 255.77 204.77 262.15 203.19L267.39 201.89C267.78 201.79 268.2 201.94 268.44 202.27L271.61 206.64C279.92 218.1 291.5 226.23 305.1 230.15C310.81 231.8 316.69 232.63 322.57 232.63C334.5 232.63 346.17 229.22 356.33 222.78L364.26 217.75C364.42 217.65 364.61 217.59 364.8 217.59L364.77 217.62Z" fill="white"/>
<path d="M304.19 124.13L277.39 119.96L277.81 117.28C278.52 112.72 279.61 109.1 281.09 106.41C282.57 103.72 284.51 101.37 286.92 99.3299C289.33 97.2999 294.57 93.8799 302.64 89.0599C306.93 86.5499 309.28 83.9999 309.68 81.4199C310.08 78.8299 309.63 76.6999 308.33 75.0299C307.02 73.3599 304.82 72.2799 301.72 71.7999C298.38 71.2799 295.45 71.9599 292.92 73.8199C290.39 75.6899 288.39 79.3299 286.92 84.7399L260.08 77.0899C262.59 67.1699 267.5 59.6399 274.83 54.4999C282.16 49.3499 292.4 47.8099 305.57 49.8599C315.82 51.4599 323.76 54.8899 329.4 60.1399C337.06 67.2599 340.14 75.6399 338.64 85.2699C338.02 89.2699 336.31 92.9499 333.52 96.3199C330.73 99.6899 325.51 103.53 317.86 107.82C312.52 110.84 309.06 113.4 307.46 115.48C305.86 117.57 304.77 120.44 304.2 124.11L304.19 124.13ZM275.36 126.94L304.07 131.41L300.13 156.73L271.42 152.26L275.36 126.94Z" fill="white"/>
<path d="M372.59 163.37L357.71 151.32L358.92 149.83C360.97 147.3 362.92 145.47 364.78 144.36C366.63 143.25 368.66 142.5 370.85 142.11C373.04 141.72 377.46 141.49 384.09 141.42C387.6 141.41 389.94 140.69 391.1 139.25C392.26 137.81 392.74 136.35 392.54 134.87C392.34 133.39 391.37 131.95 389.65 130.55C387.8 129.05 385.77 128.42 383.56 128.66C381.35 128.9 378.84 130.41 376.03 133.2L362.36 119.01C367.41 113.85 373.08 110.99 379.38 110.45C385.68 109.91 392.48 112.6 399.79 118.52C405.48 123.13 409.11 128.04 410.69 133.25C412.84 140.31 411.75 146.52 407.41 151.87C405.61 154.09 403.26 155.73 400.37 156.8C397.47 157.87 392.93 158.36 386.73 158.27C382.4 158.22 379.38 158.55 377.66 159.26C375.94 159.97 374.26 161.34 372.61 163.37H372.59ZM353.99 154.86L369.93 167.77L358.54 181.83L342.6 168.92L353.99 154.86Z" fill="white"/>
<path d="M376.749 76.7502L370.309 67.9502L371.189 67.3102C372.689 66.2102 374.029 65.4902 375.209 65.1502C376.389 64.8102 377.609 64.6902 378.879 64.7902C380.139 64.9002 382.609 65.4102 386.269 66.3302C388.199 66.8302 389.589 66.7802 390.439 66.1502C391.289 65.5302 391.759 64.7902 391.869 63.9502C391.969 63.1002 391.649 62.1702 390.909 61.1502C390.109 60.0502 389.079 59.4102 387.829 59.2302C386.579 59.0402 384.979 59.5102 383.029 60.6302L377.559 50.8402C381.089 48.7302 384.619 47.9802 388.169 48.6002C391.719 49.2202 395.069 51.6802 398.229 56.0002C400.689 59.3602 401.979 62.5902 402.089 65.6902C402.249 69.8902 400.749 73.1502 397.579 75.4602C396.269 76.4202 394.739 76.9802 392.989 77.1502C391.239 77.3202 388.669 76.9302 385.269 75.9802C382.889 75.3302 381.179 75.0702 380.129 75.2102C379.079 75.3502 377.959 75.8602 376.749 76.7402V76.7502ZM367.749 69.3702L374.649 78.7902L366.339 84.8702L359.439 75.4502L367.749 69.3702Z" fill="white"/>
<path d="M128.34 201.52C120.07 201.52 111.75 199.26 104.38 194.86C94.2304 188.81 87.0604 179.44 84.6304 169.07C76.3904 168.48 68.8004 164.43 63.7404 157.91C60.0704 153.19 57.9804 147.57 57.6704 141.61C55.5004 140.13 53.5804 138.33 51.9604 136.26C44.0704 126.11 45.0604 111.86 54.2104 102.92C50.4004 86.6599 56.4104 69.6099 69.6004 59.3599C79.9504 51.3199 93.1304 48.4899 105.87 51.5599C107.35 48.1799 109.66 45.2199 112.58 42.9499C117.27 39.2999 123.11 37.6999 129.01 38.4399C134.91 39.1799 140.17 42.1699 143.81 46.8699C144.91 48.2799 145.83 49.8299 146.57 51.4699C158.6 49.4999 170.65 54.1999 178.14 63.8499C184.84 72.4699 186.86 83.7699 183.58 94.1799C184.89 95.2999 186.08 96.5399 187.12 97.8799C195.63 108.83 193.65 124.67 182.69 133.18C179.35 135.78 175.39 137.49 171.21 138.16C169.03 146.32 164.36 153.37 157.67 158.56C149.23 165.12 138.42 167.86 127.88 166.14C127.77 175.85 130.03 189.02 140.9 198.44C141.12 198.63 141.21 198.92 141.15 199.2C141.09 199.48 140.88 199.71 140.6 199.79C136.6 200.95 132.46 201.52 128.31 201.52H128.34ZM95.7304 51.9199C86.7004 51.9199 77.8904 54.8999 70.5504 60.5999C57.7304 70.5699 51.9504 87.2099 55.8304 102.99C55.9004 103.26 55.8104 103.55 55.6104 103.75C46.7504 112.11 45.7104 125.67 53.1904 135.3C54.7804 137.35 56.6904 139.11 58.8504 140.53C59.0604 140.67 59.1904 140.9 59.2004 141.16C59.4204 146.93 61.4204 152.39 64.9604 156.96C69.8704 163.28 77.2804 167.14 85.2904 167.55C85.6404 167.57 85.9404 167.82 86.0204 168.17C88.2304 178.34 95.2104 187.58 105.18 193.52C115.46 199.64 127.63 201.49 138.81 198.66C128.08 188.62 126.08 175 126.34 165.19C126.34 164.96 126.45 164.74 126.63 164.6C126.81 164.46 127.04 164.4 127.27 164.44C137.66 166.39 148.39 163.8 156.72 157.33C163.26 152.24 167.8 145.31 169.83 137.27C169.91 136.96 170.17 136.73 170.48 136.69C174.57 136.13 178.46 134.49 181.73 131.95C192 123.97 193.86 109.12 185.88 98.8499C184.8 97.4599 183.55 96.1899 182.17 95.0499C181.92 94.8399 181.82 94.4999 181.92 94.1999C185.26 84.1499 183.38 73.1699 176.89 64.8199C169.63 55.4799 157.88 50.9999 146.22 53.1299C145.85 53.1999 145.49 52.9999 145.35 52.6599C144.64 50.9299 143.7 49.3099 142.56 47.8399C139.17 43.4799 134.28 40.6899 128.8 40.0099C123.32 39.3199 117.89 40.8099 113.53 44.1999C110.65 46.4399 108.4 49.4099 107.04 52.7899C106.89 53.1599 106.49 53.3499 106.12 53.2599C102.67 52.3699 99.1804 51.9399 95.7204 51.9399L95.7304 51.9199Z" fill="#E6E6E6"/>
<path d="M100.59 117.9L86.7804 121.15L86.4504 119.77C85.9004 117.42 85.7104 115.45 85.9004 113.86C86.0904 112.27 86.5704 110.74 87.3404 109.28C88.1104 107.82 89.9804 105.13 92.9404 101.21C94.5304 99.1496 95.1604 97.4496 94.8504 96.1196C94.5404 94.7896 93.9004 93.8396 92.9404 93.2896C91.9804 92.7396 90.7004 92.6496 89.1004 93.0196C87.3804 93.4296 86.0904 94.3296 85.2304 95.7296C84.3704 97.1296 84.1204 99.2896 84.4704 102.2L69.9604 103.78C69.2204 98.4796 70.1204 93.8596 72.6604 89.9296C75.2004 85.9896 79.8604 83.2296 86.6504 81.6296C91.9304 80.3896 96.4604 80.4896 100.22 81.9296C105.33 83.8696 108.47 87.3296 109.64 92.2896C110.13 94.3496 110.02 96.4696 109.34 98.6496C108.65 100.83 106.88 103.72 104.01 107.31C102.02 109.83 100.84 111.75 100.48 113.07C100.11 114.4 100.15 116 100.6 117.89L100.59 117.9ZM87.1704 124.94L101.96 121.46L105.03 134.51L90.2404 137.99L87.1704 124.94Z" fill="#EBEBEB"/>
<path d="M135.751 88.7299L126.161 85.8199L126.451 84.8599C126.951 83.2299 127.531 81.9599 128.211 81.0599C128.891 80.1499 129.721 79.3899 130.711 78.7699C131.701 78.1499 133.791 77.1699 136.991 75.8299C138.691 75.1299 139.681 74.3199 139.961 73.3999C140.241 72.4799 140.191 71.6699 139.801 70.9899C139.411 70.3099 138.661 69.7999 137.551 69.4699C136.361 69.1099 135.251 69.1999 134.231 69.7499C133.211 70.2999 132.291 71.5299 131.471 73.4299L122.051 69.2399C123.481 65.7399 125.671 63.2399 128.611 61.7399C131.561 60.2399 135.381 60.1999 140.091 61.6299C143.761 62.7399 146.481 64.4099 148.271 66.6299C150.701 69.6299 151.391 72.8499 150.351 76.2999C149.921 77.7299 149.101 78.9899 147.911 80.0799C146.721 81.1699 144.611 82.2999 141.591 83.4799C139.481 84.3099 138.081 85.0599 137.391 85.7399C136.701 86.4199 136.151 87.4199 135.751 88.7299ZM125.061 88.2599L135.331 91.3799L132.581 100.44L122.311 97.3199L125.061 88.2599Z" fill="#EBEBEB"/>
<path d="M250 405.5C357.083 405.5 443.89 400.432 443.89 394.18C443.89 387.928 357.083 382.86 250 382.86C142.918 382.86 56.1104 387.928 56.1104 394.18C56.1104 400.432 142.918 405.5 250 405.5Z" fill="#F5F5F5"/>
<path d="M157.61 225.38L156.69 224.99C157.52 223.04 157.99 221.41 158.14 220.03L159.13 220.14C158.97 221.62 158.47 223.33 157.6 225.38H157.61ZM157.22 213.92C155.28 209.66 151.67 206.97 146.79 206.15L146.96 205.16C152.19 206.04 156.05 208.93 158.13 213.51L157.22 213.92Z" fill="#407BFF"/>
<path d="M151.98 235.44L142.14 239.92L141.69 238.94C140.93 237.27 140.5 235.82 140.4 234.6C140.3 233.38 140.44 232.17 140.79 230.97C141.15 229.77 142.14 227.48 143.78 224.11C144.66 222.33 144.88 220.97 144.45 220.02C144.02 219.07 143.4 218.46 142.6 218.19C141.8 217.92 140.83 218.04 139.69 218.56C138.46 219.12 137.64 219.99 137.2 221.16C136.77 222.34 136.9 223.99 137.59 226.11L126.98 229.44C125.64 225.59 125.63 222.01 126.95 218.69C128.26 215.37 131.34 212.61 136.17 210.41C139.93 208.7 143.33 208.1 146.36 208.62C150.47 209.31 153.33 211.43 154.94 214.97C155.61 216.44 155.85 218.04 155.66 219.77C155.47 221.5 154.57 223.92 152.96 227.03C151.85 229.2 151.25 230.81 151.17 231.86C151.09 232.91 151.36 234.1 151.97 235.45L151.98 235.44ZM143 242.69L153.54 237.89L157.77 247.18L147.23 251.98L143 242.69Z" fill="#407BFF"/>
<path d="M127.64 257.67L122.63 264.46L121.95 263.96C120.79 263.11 119.95 262.29 119.42 261.49C118.89 260.7 118.52 259.82 118.31 258.86C118.1 257.9 117.91 255.96 117.74 253.05C117.66 251.5 117.3 250.49 116.64 250.01C115.98 249.53 115.33 249.35 114.68 249.46C114.03 249.58 113.42 250.03 112.84 250.82C112.22 251.67 111.98 252.57 112.13 253.54C112.28 254.51 113 255.58 114.28 256.76L108.31 263.07C105.93 260.95 104.56 258.51 104.2 255.75C103.83 252.99 104.88 249.94 107.34 246.6C109.25 244 111.34 242.3 113.6 241.5C116.66 240.41 119.42 240.77 121.86 242.57C122.87 243.32 123.64 244.32 124.17 245.57C124.7 246.82 125.01 248.82 125.09 251.54C125.16 253.45 125.36 254.77 125.71 255.51C126.06 256.25 126.69 256.96 127.62 257.65L127.64 257.67ZM124.27 266.03L129.63 258.75L136.05 263.48L130.69 270.76L124.27 266.03Z" fill="#407BFF"/>
<path d="M234.09 390.58C232.47 390.58 230.9 389.7 230.1 388.16C226.08 380.4 221.03 371.29 211.95 361.43C210.89 360.28 210.5 358.65 210.94 357.15C214.31 345.44 219.61 329.43 219.66 329.27C220.44 326.92 222.98 325.64 225.33 326.42C227.68 327.2 228.96 329.74 228.18 332.09C228.13 332.24 223.57 346.03 220.26 357.25C228.61 366.72 233.76 375.71 238.08 384.04C239.22 386.24 238.36 388.95 236.16 390.08C235.5 390.42 234.8 390.58 234.1 390.58H234.09Z" fill="#407BFF"/>
<path d="M241.56 394.18H206.77L225.21 383.72L240.66 384.32L241.56 394.18Z" fill="#263238"/>
<path d="M238.237 352.027C254.072 347.077 263.582 332.424 259.479 319.298C255.376 306.173 239.213 299.546 223.378 304.496C207.543 309.446 198.032 324.099 202.136 337.225C206.239 350.35 222.402 356.978 238.237 352.027Z" fill="#263238"/>
<path d="M151.65 311.92C149.89 311.92 148.22 310.88 147.5 309.15C146.55 306.86 147.64 304.24 149.93 303.29C152.54 302.21 152.9 299.55 152.9 299.52C153.09 297.52 154.59 295.88 156.57 295.52C157.64 295.33 158.67 295.02 159.87 294.68C165.95 292.9 173.47 290.7 197.18 297.34C220.56 284.26 220.83 259.74 220.83 258.68C220.83 256.21 222.83 254.19 225.3 254.19H225.32C227.78 254.19 229.79 256.17 229.8 258.64C229.8 259.94 229.66 290.72 199.76 306.14C198.74 306.67 197.56 306.78 196.46 306.46C173.87 299.93 167.5 301.79 162.39 303.29C161.94 303.42 161.48 303.56 161.01 303.69C159.9 306.54 157.6 309.83 153.37 311.58C152.81 311.81 152.23 311.92 151.66 311.92H151.65Z" fill="#263238"/>
<path d="M204.08 279.83C195.57 246.01 172.9 158.77 245.55 153.44C310.73 148.66 328.62 235.41 332.96 265.47C335.49 282.99 336.35 298.87 336.49 311.29C336.68 327.3 325.43 341.11 309.73 344.3C274.22 351.51 240.61 352.54 217.98 343.61C211.86 341.19 208.16 334.96 208.75 328.41C209.62 318.69 209.64 301.98 204.07 279.85L204.08 279.83Z" fill="#407BFF"/>
<path opacity="0.1" d="M332.96 265.46C328.86 237.14 312.74 158.42 256.3 153.5C249.73 152.93 243.25 156.16 240.23 162.02C237.71 166.9 237.79 172.81 241.56 178.66C254 197.95 283.67 264.62 279.19 300.95C277.15 317.48 266.78 330.68 275.8 349.26C286.69 348.36 298.11 346.67 309.74 344.3C325.44 341.12 336.69 327.31 336.5 311.29C336.35 298.88 335.5 282.99 332.96 265.47V265.46Z" fill="black"/>
<path d="M323.24 311.73C322.99 311.73 322.79 311.53 322.79 311.29C322.61 295.84 321.42 280.44 319.26 265.53C308.46 190.88 279.38 153.12 235.16 156.38C234.92 156.41 234.7 156.21 234.68 155.97C234.66 155.72 234.85 155.51 235.09 155.49C279.84 152.19 309.26 190.21 320.14 265.41C322.3 280.36 323.49 295.8 323.68 311.29C323.68 311.54 323.48 311.74 323.24 311.74V311.73Z" fill="#263238"/>
<path d="M322.559 354.419C338.394 349.469 347.904 334.816 343.801 321.691C339.698 308.565 323.535 301.938 307.7 306.888C291.865 311.838 282.355 326.491 286.458 339.617C290.561 352.742 306.724 359.37 322.559 354.419Z" fill="#263238"/>
<path d="M325.3 390.58C323.68 390.58 322.11 389.7 321.31 388.16C317.29 380.4 312.24 371.29 303.16 361.43C302.1 360.28 301.71 358.65 302.15 357.15C305.52 345.44 310.82 329.43 310.87 329.27C311.65 326.92 314.18 325.64 316.54 326.42C318.89 327.2 320.17 329.74 319.39 332.09C319.34 332.24 314.78 346.03 311.47 357.25C319.82 366.72 324.97 375.71 329.29 384.04C330.43 386.24 329.57 388.95 327.37 390.08C326.71 390.42 326.01 390.58 325.31 390.58H325.3Z" fill="#407BFF"/>
<path d="M315.88 253.85C314.27 253.85 312.71 252.98 311.9 251.45C310.75 249.26 311.59 246.55 313.78 245.4C314.64 244.94 334.17 234.27 339.66 208.63C326.64 203.18 303.24 190.89 298.12 184.71C297.62 184.11 297.29 183.39 297.16 182.63C297.04 181.96 296.2 176.65 298.16 171.63L295.8 167.07C294.66 164.87 295.52 162.16 297.72 161.02C299.92 159.88 302.63 160.74 303.77 162.94L307.17 169.5C307.9 170.9 307.83 172.58 307 173.93C305.93 175.66 305.79 178.19 305.88 179.84C311.64 185.05 334.92 197.38 346.31 201.61C348.31 202.35 349.51 204.4 349.18 206.5C344.11 239.27 319.04 252.77 317.97 253.33C317.31 253.68 316.59 253.84 315.89 253.84L315.88 253.85Z" fill="#263238"/>
<path d="M301.57 184.09C301.15 184.09 300.72 183.97 300.34 183.72C299.3 183.04 299.01 181.65 299.69 180.62C299.84 180.38 303.55 174.79 309.19 173.28C310.38 172.96 311.62 173.67 311.94 174.87C312.26 176.07 311.55 177.3 310.35 177.62C306.41 178.68 303.47 183.04 303.44 183.08C303.01 183.74 302.29 184.1 301.56 184.1L301.57 184.09Z" fill="#263238"/>
<path d="M332.77 394.18H297.98L316.42 383.72L331.87 384.32L332.77 394.18Z" fill="#263238"/>
<path d="M259.922 260.189C273.081 259.024 282.898 248.478 281.849 236.633C280.801 224.789 269.283 216.132 256.124 217.297C242.965 218.462 233.147 229.008 234.196 240.853C235.245 252.697 246.762 261.354 259.922 260.189Z" fill="white"/>
<path d="M258.5 239.06C260.31 245.41 258.95 251.37 255.45 252.36C251.96 253.35 247.66 249.01 245.85 242.66C244.04 236.31 245.4 230.35 248.9 229.36C252.4 228.37 256.69 232.71 258.5 239.06Z" fill="#263238"/>
<path d="M230.8 242.8C245.9 240.86 275.81 232.33 280.74 228.89C276.85 217.53 258.78 207.81 242.61 213.28C228.04 218.21 230.8 242.79 230.8 242.79V242.8Z" fill="#263238"/>
<path d="M233.73 250.1C252.47 246.54 276.84 240.56 283.81 236.72C283.38 248.95 279.83 261.34 260.69 265.52C245.05 268.94 233.72 250.09 233.72 250.09L233.73 250.1Z" fill="#263238"/>
<path d="M218.282 261.849C225.062 257.363 225.956 246.77 220.279 238.189C214.601 229.608 204.502 226.289 197.723 230.775C190.943 235.26 190.049 245.853 195.726 254.434C201.404 263.015 211.502 266.335 218.282 261.849Z" fill="white"/>
<path d="M208.34 246.62C209.48 251.98 208.5 256.45 206.15 256.6C203.8 256.76 200.97 252.54 199.84 247.18C198.7 241.82 199.68 237.35 202.03 237.2C204.38 237.04 207.21 241.26 208.34 246.62Z" fill="#263238"/>
<path d="M189.749 244.57C199.879 245.77 219.999 244.43 223.339 242.6C220.869 232.9 208.889 221.93 197.999 223.33C188.189 224.6 189.749 244.56 189.749 244.56V244.57Z" fill="#263238"/>
<path d="M191.63 250.88C204.22 251.45 220.6 251.13 225.31 249.36C224.88 258.97 222.36 268.13 209.5 267.98C198.99 267.86 191.63 250.88 191.63 250.88Z" fill="#263238"/>
<path d="M264.09 207.24C245.2 207.24 232.65 197.91 232.03 197.44C230.06 195.94 229.67 193.13 231.17 191.15C232.66 189.18 235.47 188.79 237.44 190.28C237.66 190.44 252.57 201.32 273.28 197.39C275.72 196.93 278.06 198.53 278.52 200.96C278.98 203.39 277.38 205.74 274.95 206.2C271.14 206.92 267.51 207.23 264.09 207.23V207.24Z" fill="#263238"/>
<path d="M183.88 199.51C183.38 199.51 182.86 199.43 182.36 199.25C180.03 198.41 178.82 195.84 179.66 193.51C182.04 186.89 185.98 182.59 191.38 180.74C201.17 177.37 211.71 183.92 212.15 184.2C214.24 185.52 214.87 188.29 213.55 190.39C212.23 192.48 209.47 193.11 207.37 191.79C205.33 190.52 199 187.58 194.27 189.23C191.55 190.18 189.53 192.57 188.1 196.54C187.44 198.37 185.72 199.51 183.88 199.51Z" fill="#263238"/>
<path d="M219.23 275.19C219.11 275.19 218.98 275.17 218.86 275.14C218.15 274.93 217.74 274.21 217.94 273.5C217.97 273.38 218.82 270.47 222.5 268.57C227.65 265.92 235.49 266.47 245.81 270.2C246.51 270.45 246.87 271.23 246.62 271.92C246.37 272.62 245.6 272.98 244.9 272.73C233.07 268.44 226.92 269.37 223.85 270.9C221.17 272.24 220.56 274.15 220.53 274.23C220.35 274.81 219.82 275.19 219.24 275.19H219.23Z" fill="#263238"/>
<path d="M176.88 270.26C150.78 272.6 132.09 283.41 132.09 283.41C139.82 281.95 167.45 316.14 174.55 342.5C187.65 337.64 202.93 334.33 219.23 331.75C209.36 304.57 191.31 273.79 176.88 270.26Z" fill="#407BFF"/>
<path opacity="0.6" d="M176.88 270.26C150.78 272.6 132.09 283.41 132.09 283.41C139.82 281.95 167.45 316.14 174.55 342.5C187.65 337.64 202.93 334.33 219.23 331.75C209.36 304.57 191.31 273.79 176.88 270.26Z" fill="white"/>
<path d="M176.88 270.26C159.8 268.33 132.07 282.63 132.07 282.63C127.16 285.76 128.49 291.64 131.17 294.12C133.74 290.43 162.4 280.83 173.18 279.54C167.82 274.58 172.8 270.98 176.88 270.26Z" fill="#407BFF"/>
<path opacity="0.2" d="M176.88 270.26C159.8 268.33 132.07 282.63 132.07 282.63C127.16 285.76 128.49 291.64 131.17 294.12C133.74 290.43 162.4 280.83 173.18 279.54C167.82 274.58 172.8 270.98 176.88 270.26Z" fill="white"/>
<path d="M151.66 311.92C150.19 311.92 148.76 311.2 147.9 309.88C144.65 304.9 146.68 297.29 147.12 295.82C147.83 293.45 150.33 292.1 152.7 292.81C155.07 293.52 156.42 296.01 155.72 298.38C154.99 300.89 154.84 304.1 155.42 304.98C156.77 307.05 156.19 309.83 154.11 311.19C153.35 311.68 152.5 311.92 151.66 311.92Z" fill="#263238"/>
<path d="M170.61 91.5701H195.37V97.9501H179.87V102.7H194.25V108.8H179.87V114.69H195.82V121.46H170.61V91.5601V91.5701Z" fill="#263238"/>
<path d="M200.92 121.47V91.5698H216.32C219.18 91.5698 221.36 91.8098 222.87 92.2998C224.38 92.7898 225.6 93.6998 226.52 95.0198C227.44 96.3498 227.91 97.9598 227.91 99.8598C227.91 101.52 227.56 102.95 226.85 104.15C226.14 105.35 225.17 106.33 223.93 107.08C223.14 107.56 222.06 107.95 220.69 108.26C221.79 108.63 222.59 109 223.09 109.36C223.43 109.61 223.92 110.13 224.57 110.93C225.22 111.73 225.65 112.35 225.86 112.79L230.33 121.45H219.89L214.95 112.31C214.32 111.13 213.77 110.36 213.28 110.01C212.61 109.55 211.86 109.32 211.02 109.32H210.2V121.46H200.92V121.47ZM210.2 103.68H214.1C214.52 103.68 215.34 103.54 216.55 103.27C217.16 103.15 217.66 102.84 218.05 102.33C218.44 101.83 218.63 101.25 218.63 100.6C218.63 99.6398 218.32 98.8898 217.71 98.3798C217.1 97.8598 215.95 97.5998 214.26 97.5998H210.2V103.68Z" fill="#263238"/>
<path d="M233.41 121.47V91.5698H248.81C251.67 91.5698 253.85 91.8098 255.36 92.2998C256.87 92.7898 258.09 93.6998 259.01 95.0198C259.93 96.3498 260.4 97.9598 260.4 99.8598C260.4 101.52 260.05 102.95 259.34 104.15C258.63 105.35 257.66 106.33 256.42 107.08C255.63 107.56 254.55 107.95 253.18 108.26C254.28 108.63 255.08 109 255.58 109.36C255.92 109.61 256.41 110.13 257.06 110.93C257.71 111.73 258.14 112.35 258.35 112.79L262.82 121.45H252.38L247.44 112.31C246.81 111.13 246.26 110.36 245.77 110.01C245.1 109.55 244.35 109.32 243.51 109.32H242.69V121.46H233.41V121.47ZM242.69 103.68H246.59C247.01 103.68 247.83 103.54 249.04 103.27C249.65 103.15 250.15 102.84 250.54 102.33C250.93 101.83 251.12 101.25 251.12 100.6C251.12 99.6398 250.81 98.8898 250.2 98.3798C249.59 97.8598 248.44 97.5998 246.75 97.5998H242.69V103.68Z" fill="#263238"/>
<path d="M263.9 106.54C263.9 101.66 265.26 97.8601 267.98 95.1401C270.7 92.4201 274.49 91.0601 279.34 91.0601C284.19 91.0601 288.15 92.4001 290.84 95.0701C293.53 97.7401 294.88 101.49 294.88 106.3C294.88 109.79 294.29 112.66 293.12 114.9C291.94 117.14 290.24 118.88 288.02 120.12C285.8 121.36 283.03 121.99 279.71 121.99C276.39 121.99 273.55 121.45 271.34 120.38C269.13 119.31 267.34 117.61 265.97 115.28C264.6 112.95 263.91 110.04 263.91 106.55L263.9 106.54ZM273.14 106.58C273.14 109.6 273.7 111.77 274.82 113.09C275.94 114.41 277.47 115.07 279.4 115.07C281.33 115.07 282.92 114.42 284.01 113.13C285.1 111.84 285.64 109.52 285.64 106.17C285.64 103.36 285.07 101.3 283.94 100C282.8 98.7001 281.26 98.0501 279.32 98.0501C277.38 98.0501 275.96 98.7101 274.83 100.03C273.7 101.35 273.14 103.53 273.14 106.58Z" fill="#263238"/>
<path d="M299.98 121.47V91.5698H315.38C318.24 91.5698 320.42 91.8098 321.93 92.2998C323.44 92.7898 324.66 93.6998 325.58 95.0198C326.5 96.3498 326.97 97.9598 326.97 99.8598C326.97 101.52 326.62 102.95 325.91 104.15C325.2 105.35 324.23 106.33 322.99 107.08C322.2 107.56 321.12 107.95 319.75 108.26C320.85 108.63 321.65 109 322.15 109.36C322.49 109.61 322.98 110.13 323.63 110.93C324.28 111.73 324.71 112.35 324.92 112.79L329.39 121.45H318.95L314.01 112.31C313.38 111.13 312.83 110.36 312.34 110.01C311.67 109.55 310.92 109.32 310.08 109.32H309.26V121.46H299.98V121.47ZM309.26 103.68H313.16C313.58 103.68 314.4 103.54 315.61 103.27C316.22 103.15 316.72 102.84 317.11 102.33C317.5 101.83 317.69 101.25 317.69 100.6C317.69 99.6398 317.38 98.8898 316.77 98.3798C316.16 97.8598 315.01 97.5998 313.32 97.5998H309.26V103.68Z" fill="#263238"/>
</g>
<defs>
<clipPath id="clip0_5096_11788">
<rect width="500" height="405.5" fill="white"/>
</clipPath>
</defs>
</svg>
