<svg width="144" height="39" viewBox="0 0 144 39" fill="none" xmlns="http://www.w3.org/2000/svg">
<g clip-path="url(#clip0_5443_33345)">
<path d="M9.31384 2.24146C10.8526 2.24146 12.1485 2.82258 13.2013 3.98484C14.2542 5.14712 14.7806 6.64146 14.7806 8.42636C14.7806 10.2113 14.2542 11.7471 13.2013 12.8679C12.1485 13.9886 10.8526 14.6112 9.31384 14.6112H2.71316V21.6264H0V2.24146H9.31384ZM8.82789 12.2867C9.75927 12.2867 10.5287 11.9132 11.1766 11.249C11.8245 10.5433 12.108 9.63013 12.108 8.46787C12.108 7.30561 11.784 6.3924 11.1766 5.72825C10.5692 5.0641 9.75927 4.69051 8.82789 4.69051H2.71316V12.2867H8.82789Z" fill="#3F5073"/>
<path d="M34.0967 21.6264H31.2621L27.2125 14.6112H21.3812V21.6264H18.6276V2.24146H27.9415C29.4803 2.24146 30.7761 2.82258 31.829 3.98484C32.8818 5.14712 33.4082 6.64146 33.4082 8.42636C33.4082 9.83768 33.0439 11.083 32.3959 12.1207C31.748 13.1584 30.8571 13.9056 29.7637 14.3207L34.0967 21.6264ZM21.3812 4.69051V12.2867H27.4961C28.4274 12.2867 29.1968 11.9132 29.8448 11.249C30.4926 10.5433 30.7761 9.63013 30.7761 8.46787C30.7761 7.30561 30.4521 6.3924 29.8448 5.72825C29.2372 5.0641 28.4274 4.69051 27.4961 4.69051H21.3812Z" fill="#3F5073"/>
<path d="M46.1642 21.8339C44.8279 21.8339 43.613 21.5848 42.4387 21.1697C41.3048 20.7131 40.2924 20.0905 39.4825 19.2189C38.6322 18.3887 37.9842 17.3509 37.5388 16.1056C37.0933 14.8603 36.8099 13.4905 36.8099 11.9962C36.8099 10.5018 37.0528 9.09052 37.5388 7.88675C37.9842 6.64147 38.6727 5.60373 39.4825 4.77355C40.3329 3.94335 41.3048 3.2792 42.4387 2.8226C43.5725 2.36599 44.8279 2.15845 46.1642 2.15845C47.946 2.15845 49.5253 2.53203 50.9426 3.32071C52.3599 4.10939 53.4533 5.23014 54.2631 6.76599C55.0731 8.26033 55.5185 10.0452 55.5185 12.0377C55.5185 14.0302 55.1136 15.7735 54.2631 17.3094C53.4533 18.8038 52.3194 19.9661 50.9426 20.7546C49.4848 21.4603 47.9055 21.8339 46.1642 21.8339ZM41.3857 17.3094C42.6006 18.5961 44.2205 19.2603 46.1642 19.2603C48.108 19.2603 49.7278 18.5961 50.9426 17.3094C52.1575 16.0226 52.7649 14.1961 52.7649 11.9547C52.7649 9.71317 52.1575 7.88675 50.9426 6.59996C49.7278 5.31317 48.108 4.64901 46.1642 4.64901C44.2205 4.64901 42.6006 5.31317 41.3857 6.59996C40.171 7.88675 39.5636 9.71317 39.5636 11.9547C39.5636 14.1961 40.1305 16.0226 41.3857 17.3094Z" fill="#3F5073"/>
<path d="M105.084 2.24146H107.798V21.6264H104.76L94.2317 6.59994V21.6264H91.5187V2.24146H94.5557L105.084 17.2679V2.24146Z" fill="#3F5073"/>
<path d="M125.534 4.69051H115.735V10.7509H125.21V13.0754H115.735V19.1358H125.534V21.5848H113.021V2.24146H125.534V4.69051Z" fill="#3F5073"/>
<path d="M144 2.24146V4.69051H138.047V21.6264H135.334V4.69051H129.381V2.24146H144Z" fill="#3F5073"/>
<path d="M78.1552 8.34345C76.495 7.96986 74.8347 7.80383 73.2959 7.80383C71.7975 7.80383 70.2587 7.96986 68.6795 8.30194C65.7638 8.92458 63.2127 10.0038 61.5928 11L61.5523 11.0416V14.1547V14.1133C64.0226 12.6189 68.5579 10.917 73.2959 10.917C78.0338 10.917 82.6097 12.6604 85.0799 14.1133L85.1204 14.1547V11.0416L85.0799 11C83.5006 10.0453 80.9899 8.96609 78.1552 8.34345Z" fill="#0039FF"/>
<path d="M78.1552 16.1471C76.495 15.7735 74.8347 15.6074 73.2959 15.6074C71.7975 15.6074 70.2587 15.7735 68.6795 16.1056C65.7638 16.7282 63.2127 17.8074 61.5928 18.8037L61.5523 18.8453V21.9999L61.5928 21.9584C64.0631 20.4641 68.5985 18.7622 73.3364 18.7622C78.0743 18.7622 82.6502 20.5056 85.1204 21.9584L85.1609 21.9999V18.8453L85.1204 18.8037C83.5006 17.8905 80.9899 16.7697 78.1552 16.1471Z" fill="#0039FF"/>
<path d="M85.0819 3.19623C83.4621 2.24151 80.9919 1.16226 78.1572 0.539623C76.5375 0.166038 74.8772 0 73.3384 0C71.8401 0 70.3012 0.166038 68.722 0.498113C65.8062 1.12075 63.2551 2.2 61.6353 3.19623L61.5948 3.23774V6.35095L61.6353 6.30944C64.1056 4.8151 68.641 3.11321 73.3789 3.11321C78.1168 3.11321 82.6927 4.85661 85.1628 6.30944L85.2035 6.35095V3.19623H85.0819Z" fill="#0039FF"/>
</g>
<path d="M112.706 35.0615H113.59C113.632 35.4424 113.818 35.7484 114.146 35.9795C114.479 36.2106 114.897 36.3262 115.401 36.3262C115.877 36.3262 116.269 36.2139 116.578 35.9893C116.891 35.7614 117.047 35.4749 117.047 35.1299C117.047 34.8337 116.938 34.5895 116.72 34.3975C116.505 34.2054 116.16 34.0475 115.685 33.9238L114.781 33.6895C114.13 33.5234 113.655 33.2923 113.355 32.9961C113.056 32.6966 112.906 32.3076 112.906 31.8291C112.906 31.2432 113.137 30.7646 113.6 30.3936C114.065 30.0225 114.664 29.8369 115.396 29.8369C116.096 29.8369 116.676 30.0257 117.135 30.4033C117.594 30.7777 117.833 31.2594 117.853 31.8486H116.974C116.935 31.471 116.772 31.1732 116.485 30.9551C116.199 30.737 115.826 30.6279 115.367 30.6279C114.911 30.6279 114.539 30.7354 114.249 30.9502C113.963 31.165 113.819 31.445 113.819 31.79C113.819 32.057 113.924 32.2767 114.132 32.4492C114.343 32.6185 114.688 32.765 115.167 32.8887L115.904 33.084C116.633 33.2663 117.158 33.5088 117.477 33.8115C117.796 34.1143 117.955 34.5179 117.955 35.0225C117.955 35.667 117.717 36.1781 117.242 36.5557C116.77 36.93 116.129 37.1172 115.318 37.1172C114.57 37.1172 113.958 36.93 113.482 36.5557C113.007 36.1813 112.748 35.6833 112.706 35.0615ZM121.642 37H120.763V30.7451H118.541V29.9541H123.863V30.7451H121.642V37ZM124.952 30.8184C125.535 30.1641 126.326 29.8369 127.325 29.8369C128.325 29.8369 129.116 30.1641 129.698 30.8184C130.281 31.4727 130.572 32.3597 130.572 33.4795C130.572 34.5993 130.281 35.4863 129.698 36.1406C129.116 36.7917 128.325 37.1172 127.325 37.1172C126.326 37.1172 125.535 36.7917 124.952 36.1406C124.369 35.4863 124.078 34.5993 124.078 33.4795C124.078 32.3597 124.369 31.4727 124.952 30.8184ZM129.034 31.4141C128.614 30.903 128.045 30.6475 127.325 30.6475C126.606 30.6475 126.035 30.903 125.611 31.4141C125.191 31.9219 124.981 32.6104 124.981 33.4795C124.981 34.3454 125.191 35.0339 125.611 35.5449C126.035 36.0527 126.606 36.3066 127.325 36.3066C128.045 36.3066 128.614 36.0527 129.034 35.5449C129.457 35.0339 129.669 34.3454 129.669 33.4795C129.669 32.6104 129.457 31.9219 129.034 31.4141ZM134.566 37.1172C133.593 37.1172 132.82 36.79 132.247 36.1357C131.677 35.4782 131.393 34.5911 131.393 33.4746C131.393 32.3678 131.681 31.4857 132.257 30.8281C132.833 30.1673 133.603 29.8369 134.566 29.8369C135.335 29.8369 135.986 30.0518 136.52 30.4814C137.057 30.9079 137.381 31.4727 137.491 32.1758H136.603C136.489 31.7135 136.246 31.3441 135.875 31.0674C135.504 30.7874 135.068 30.6475 134.566 30.6475C133.88 30.6475 133.329 30.9046 132.916 31.4189C132.503 31.9333 132.296 32.6185 132.296 33.4746C132.296 34.3405 132.501 35.029 132.911 35.54C133.321 36.0511 133.875 36.3066 134.571 36.3066C135.089 36.3066 135.525 36.1878 135.88 35.9502C136.235 35.7126 136.476 35.3789 136.603 34.9492H137.491C137.328 35.6458 136.995 36.1813 136.49 36.5557C135.986 36.93 135.344 37.1172 134.566 37.1172ZM139.41 37H138.531V29.9541H139.41V33.3916H139.459L142.569 29.9541H143.678L140.782 33.0742L143.937 37H142.813L140.172 33.6992L139.41 34.5391V37Z" fill="#6B7A99"/>
<defs>
<clipPath id="clip0_5443_33345">
<rect width="144" height="22" fill="white"/>
</clipPath>
</defs>
</svg>
