<svg width="50" height="50" viewBox="0 0 50 50" fill="none" xmlns="http://www.w3.org/2000/svg">
<circle cx="25" cy="25" r="18" fill="white"/>
<path fill-rule="evenodd" clip-rule="evenodd" d="M25 5C13.96 5 5 13.96 5 25C5 36.04 13.96 45 25 45C36.04 45 45 36.04 45 25C45 13.96 36.04 5 25 5ZM24.9998 10.9999C28.3198 10.9999 30.9998 13.6799 30.9998 16.9999C30.9998 20.3199 28.3198 22.9999 24.9998 22.9999C21.6798 22.9999 18.9998 20.3199 18.9998 16.9999C18.9998 13.6799 21.6798 10.9999 24.9998 10.9999ZM24.9996 39.4002C19.9996 39.4002 15.5796 36.8402 12.9996 32.9602C13.0596 28.9802 20.9996 26.8002 24.9996 26.8002C28.9796 26.8002 36.9396 28.9802 36.9996 32.9602C34.4196 36.8402 29.9996 39.4002 24.9996 39.4002Z" fill="#7C8AA6"/>
</svg>
